<svg width="27" height="27" viewBox="0 0 27 27" fill="none" xmlns="http://www.w3.org/2000/svg">
<path fill-rule="evenodd" clip-rule="evenodd" d="M4.83654 25.0594C4.70492 25.8086 5.44404 26.3942 6.09542 26.06L13.5035 22.253L20.91 26.06C21.5614 26.3942 22.3005 25.8086 22.1689 25.061L20.7682 17.0792L26.7133 11.4159C27.2685 10.886 26.9799 9.91741 26.2357 9.81279L17.9704 8.63829L14.2849 1.33648C14.2146 1.18846 14.1039 1.06341 13.9654 0.975845C13.827 0.88828 13.6665 0.841797 13.5027 0.841797C13.3389 0.841797 13.1784 0.88828 13.04 0.975845C12.9015 1.06341 12.7908 1.18846 12.7205 1.33648L9.03504 8.63998L0.769669 9.81448C0.0254816 9.9191 -0.263081 10.8877 0.292107 11.4176L6.23717 17.0809L4.83654 25.0627V25.0594ZM13.1137 20.39L6.89361 23.5862L8.06473 16.9087C8.09217 16.755 8.08143 16.5969 8.03347 16.4483C7.98551 16.2997 7.90179 16.1652 7.78967 16.0565L2.88579 11.3822L9.72354 10.4102C9.86513 10.3888 9.99943 10.3334 10.1149 10.2488C10.2304 10.1641 10.3237 10.0527 10.3867 9.92416L13.5035 3.75129L16.6187 9.92416C16.6817 10.0527 16.775 10.1641 16.8905 10.2488C17.006 10.3334 17.1403 10.3888 17.2819 10.4102L24.1196 11.3805L19.2157 16.0549C19.1032 16.1636 19.0193 16.2984 18.9713 16.4473C18.9233 16.5963 18.9128 16.7548 18.9407 16.9087L20.1118 23.5862L13.8917 20.39C13.7714 20.328 13.638 20.2957 13.5027 20.2957C13.3674 20.2957 13.234 20.328 13.1137 20.39Z" fill="#5661CB"/>
</svg>
