<svg width="27" height="27" viewBox="0 0 27 27" fill="none" xmlns="http://www.w3.org/2000/svg">
<path d="M9.54239 27.0003C10.658 27.0003 11.5623 26.076 11.5623 24.9357C11.5623 23.7955 10.658 22.8711 9.54239 22.8711C8.42681 22.8711 7.52246 23.7955 7.52246 24.9357C7.52246 26.076 8.42681 27.0003 9.54239 27.0003Z" fill="#5661CB"/>
<path d="M21.8148 27.0003C22.9304 27.0003 23.8348 26.076 23.8348 24.9357C23.8348 23.7955 22.9304 22.8711 21.8148 22.8711C20.6993 22.8711 19.7949 23.7955 19.7949 24.9357C19.7949 26.076 20.6993 27.0003 21.8148 27.0003Z" fill="#5661CB"/>
<path d="M27 4.17577C26.9219 4.0064 26.8818 3.3246 26.88 3.15364C26.8818 2.98268 26.9219 2.81195 27 2.64258H8L9 4.17577H18H27Z" fill="#5661CB"/>
<path d="M24.5078 10.0242H24.1307L23.0086 15.0711H9.5424L5.43971 1.79329C5.39533 1.6524 5.31827 1.52457 5.21509 1.42071C5.11192 1.31685 4.9857 1.24004 4.8472 1.19684L1.16644 0.0406531C1.05327 0.00510494 0.934346 -0.00730978 0.816474 0.00411763C0.698603 0.015545 0.584087 0.0505909 0.479466 0.107254C0.268175 0.221691 0.110013 0.417233 0.0397743 0.650863C-0.0304642 0.884494 -0.00702567 1.13707 0.104934 1.35304C0.216893 1.56901 0.408202 1.73067 0.636774 1.80246L3.85968 2.81183L7.98032 16.1172L6.50802 17.3468L6.39131 17.466C6.02713 17.895 5.82071 18.4404 5.8076 19.0082C5.79449 19.576 5.97552 20.1307 6.31949 20.5767C6.56418 20.8809 6.87512 21.1223 7.22742 21.2816C7.57972 21.441 7.96362 21.5138 8.3484 21.4943H23.3317C23.5698 21.4943 23.7982 21.3977 23.9665 21.2256C24.1349 21.0535 24.2295 20.8201 24.2295 20.5767C24.2295 20.3334 24.1349 20.1 23.9665 19.9279C23.7982 19.7558 23.5698 19.6591 23.3317 19.6591H8.20476C8.10138 19.6555 8.00066 19.6247 7.91233 19.5697C7.82399 19.5147 7.75103 19.4373 7.70049 19.3451C7.64995 19.2528 7.62354 19.1488 7.62381 19.0431C7.62407 18.9374 7.65101 18.8335 7.70202 18.7415L9.86558 16.9063H23.7268C23.9343 16.9115 24.1371 16.843 24.3008 16.7125C24.4645 16.582 24.5789 16.3976 24.6245 16.1906L26.034 9.84989C25.5334 9.96723 25.0213 10.0257 24.5078 10.0242Z" fill="#5661CB"/>
</svg>
